# xmcd CD database file
#
# Track frame offsets:
#	150
#	1246
#	20582
#	35580
#	53658
#	68583
#	83400
#	96013
#	112835
#	128578
#	144306
#	161008
#	178643
#	197299
#	210675
#	227131
#	245374
#	260978
#	276390
#	293172
#
# Disc length: 4130 seconds
#
# Revision: 0
# Processed by: cddbd v1.5.2PL0 Copyright (c) Steve Scherf et al.
# Submitted via: Feurio! 1.68 - http://www.feurio.com
#
DISCID=0c102014
DTITLE=Various Artist - Power Aerobic - 2009/III - Chart
DYEAR=2009
DGENRE=Aerobic - Tae Bo
TTITLE0=Move Ya! - Intro
TTITLE1=Madonna - Celebration
TTITLE2=David May feat. Kelvin Scott - I'll Be Watching You
TTITLE3=Resource feat. Tina Cousins - Hymn
TTITLE4=P!nk - Funhouse (House Remix)
TTITLE5=Rec Pro - Sweet Dreams
TTITLE6=Sash feat. Tina Cousins - Mysterious Times 2009
TTITLE7=Orangez - I Gotta Feeling
TTITLE8=Nick Skitz - Release Me
TTITLE9=Cascada - Fever (Trance Remix)
TTITLE10=Comea - Unfaithful
TTITLE11=Broken Sweat - Lovegame
TTITLE12=N-Force - All My Life
TTITLE13=Sapphire - Halo
TTITLE14=Felix Grey - Wanna Be Startin Somethin
TTITLE15=Katherine - Ayo Technology
TTITLE16=Final 1 - I Gotta Feeling
TTITLE17=Final 2 - Wanna Be Startin Somethin
TTITLE18=Charlie Winston - Lika A Hobo
TTITLE19=Livingston - Broken
EXTD=Cardio: 54:28 // 134 - 140 BPM // Autumn '09\r\nFINAL 1: 2x Intro and 12x 
EXTD=Choreo\r\nFINAL 2: 2x Intro and 12x Choreo
EXTT0=
EXTT1=134
EXTT2=134
EXTT3=135
EXTT4=136
EXTT5=136
EXTT6=136
EXTT7=137
EXTT8=137
EXTT9=137
EXTT10=138
EXTT11=138
EXTT12=139
EXTT13=139
EXTT14=140
EXTT15=140
EXTT16=140
EXTT17=140
EXTT18=118
EXTT19=95
PLAYORDER=
